<?xml version="1.0" encoding="UTF-8"?>
<svg xmlns="http://www.w3.org/2000/svg" id="Layer_1" width="800" height="585" viewBox="0 0 800 585">
  <title>Artboard 1 copy1</title>
  <rect x="125" y="518.5" width="550" height="3" style="fill:#f2f2f2"></rect>
  <g style="opacity:0.300000011920929">
    <path d="M277.82,78.08a49,49,0,0,0-89.91-23.67A24.18,24.18,0,0,0,180,53a22.37,22.37,0,0,0-20.93,14.14A32.62,32.62,0,0,1,162.8,67c27.42,0,50.22,20.06,54,46.18h83.7v-1.88A35.57,35.57,0,0,0,277.82,78.08Z" style="fill:#a7d7ea"></path>
  </g>
  <g style="opacity:0.300000011920929;isolation:isolate">
    <path d="M242.75,154.42a39.55,39.55,0,0,0-25.4-36.8C215.62,89.34,191.81,67,162.95,67A54.85,54.85,0,0,0,117.2,91.5a25.91,25.91,0,0,0-8.95-1.59,25,25,0,0,0-25.25,25,22,22,0,0,0,.43,4.33,37.47,37.47,0,0,0-34.06,37.23H242.75Z" style="fill:#5dbbe5"></path>
  </g>
  <path d="M659.63,65H140.37a15.93,15.93,0,0,0-15.93,15.93V429.57a15.93,15.93,0,0,0,15.93,15.93H344.63L339.1,500l-23.22,16.21v5.26H483.35v-5.26L460.13,500,454.6,445.5h205a15.93,15.93,0,0,0,15.93-15.93V80.93A15.93,15.93,0,0,0,659.63,65Z" style="fill:#a6d7ea;stroke:#a6d7ea;stroke-miterlimit:10"></path>
  <path d="M124.44,392.7v36.87a15.93,15.93,0,0,0,15.93,15.93H659.63a15.93,15.93,0,0,0,15.93-15.93V392.7Z" style="fill:#009fdf"></path>
  <rect x="147.81" y="86.25" width="504.38" height="285.2" style="fill:#e6e6e6"></rect>
  <rect x="182.33" y="103.85" width="166.33" height="250" style="fill:#fff"></rect>
  <rect x="361.67" y="103.85" width="76.67" height="76.67" style="fill:#009fdf"></rect>
  <rect x="361.67" y="190.52" width="76.67" height="76.67" style="fill:#009fdf"></rect>
  <rect x="361.67" y="277.18" width="76.67" height="76.67" style="fill:#009fdf"></rect>
  <rect x="451.33" y="103.85" width="76.67" height="76.67" style="fill:#009fdf"></rect>
  <rect x="451.33" y="190.52" width="76.67" height="76.67" style="fill:#009fdf"></rect>
  <rect x="451.33" y="277.18" width="76.67" height="76.67" style="fill:#009fdf"></rect>
  <rect x="541" y="103.85" width="76.67" height="76.67" style="fill:#009fdf"></rect>
  <rect x="541" y="190.52" width="76.67" height="76.67" style="fill:#009fdf"></rect>
  <rect x="541" y="277.18" width="76.67" height="76.67" style="fill:#009fdf"></rect>
  <path d="M417.69,164.63l-35.37,0V119.74l35.37,0Zm-4.59-39.8-26.19,0v3.66l26.19,0Zm0,7.42-26.19,0v3.66l26.19,0Zm0,7.42-26.19,0v3.66l26.19,0Zm-10.64,16.2-15.55,0v3.66l15.55,0Z" style="fill:#fff"></path>
  <path d="M489.61,119.59c-9.34.07-16.88,7.3-16.85,16.15a15.32,15.32,0,0,0,3.11,9.18l13.91,22.6,13.75-22.8a15.42,15.42,0,0,0,3-9.22C506.55,126.64,499,119.52,489.61,119.59Zm.08,24a8.41,8.41,0,1,1,8.83-8.46A8.59,8.59,0,0,1,489.69,143.55Z" style="fill:#fff"></path>
  <polygon points="591.05 123.91 587.3 123.87 587.3 132.63 591.05 132.67 591.05 123.91" style="fill:#fff"></polygon>
  <polygon points="571.25 123.71 567.49 123.67 567.49 132.43 571.25 132.47 571.25 123.71" style="fill:#fff"></polygon>
  <polygon points="593.97 130.94 593.97 135.64 584.46 135.54 584.46 130.84 574.21 130.74 574.21 135.44 564.7 135.34 564.7 130.65 560.51 130.6 560.51 161.78 598.16 162.16 598.16 130.98 593.97 130.94" style="fill:#fff"></polygon>
  <path d="M401.92,230.37v4.9a2.78,2.78,0,0,0,2.29-2.61C404.21,231.35,403,230.72,401.92,230.37Z" style="fill:#fff"></path>
  <path d="M415.19,213.66a21.48,21.48,0,1,0,0,30.38A21.48,21.48,0,0,0,415.19,213.66ZM401.92,239v1.66h-3.35V239a7.71,7.71,0,0,1-6.59-5.71l3.52-1a3.92,3.92,0,0,0,3.07,3v-5.88c-3.14-.78-6.13-2.08-6.13-5.74,0-3.49,3-5.29,6.13-5.67V216h3.35v1.9a7.93,7.93,0,0,1,5.21,3.38l-2.71,2.22a5.22,5.22,0,0,0-2.5-1.94v4.86c3.1.85,6.1,2.43,6.1,6.1S405.23,238.44,401.92,239Z" style="fill:#fff"></path>
  <path d="M396.25,223.64c0,1.2,1.27,1.62,2.33,2v-4C397.48,221.81,396.25,222.33,396.25,223.64Z" style="fill:#fff"></path>
  <path d="M503.16,238.08a6.73,6.73,0,0,0-5.18,2.37l-15.32-8.76a6.74,6.74,0,0,0,.37-2.12,6.84,6.84,0,0,0-.47-2.46l15.64-9.7a6.89,6.89,0,0,0,5,2.2,6.77,6.77,0,0,0,6.85-6.78,6.94,6.94,0,0,0-6.85-6.92,6.77,6.77,0,0,0-6.85,6.78,6.84,6.84,0,0,0,.47,2.46l-15.64,9.7a6.89,6.89,0,0,0-5-2.2,6.77,6.77,0,0,0-6.85,6.78,6.94,6.94,0,0,0,6.85,6.92,6.73,6.73,0,0,0,5.18-2.37l15.32,8.76a6.75,6.75,0,0,0-.37,2.12,6.94,6.94,0,0,0,6.85,6.92A6.77,6.77,0,0,0,510,245,6.94,6.94,0,0,0,503.16,238.08Z" style="fill:#fff"></path>
  <path d="M582,204.56v22l22,.22A22.24,22.24,0,0,0,582,204.56Z" style="fill:#fff"></path>
  <path d="M576.65,209.2a21.71,21.71,0,0,0-22,21.75,22.24,22.24,0,0,0,22,22.19,21.71,21.71,0,0,0,22-21.75l-22-.22Z" style="fill:#fff"></path>
  <path d="M421,295.47a.68.68,0,0,0-.73-.11l-44,20a.67.67,0,0,0-.39.6.69.69,0,0,0,.38.62l12.46,6.24a.68.68,0,0,0,.71-.06l12.12-8.94L392,323.54a.67.67,0,0,0-.19.52l.95,12.35a.69.69,0,0,0,.46.6.7.7,0,0,0,.21,0,.67.67,0,0,0,.51-.23l6.62-7.6,8.18,4a.68.68,0,0,0,.56,0,.67.67,0,0,0,.38-.41l11.53-36.62a.68.68,0,0,0-.2-.72Zm0,0" style="fill:#fff"></path>
  <path d="M509.8,309.87a15.61,15.61,0,0,0-15.38-14.58,15.23,15.23,0,0,0-12.91,6.86,7.12,7.12,0,0,0-2.52-.5,7,7,0,0,0-7.11,7,6.8,6.8,0,0,0,.12,1.24,10.53,10.53,0,0,0-9.6,10.52,10.81,10.81,0,0,0,10.67,10.78l9,.09,2.81,0,3,0V317.27l-6.64,6.57-3.46-3.5,10.1-10,2.45-2.43,2.45,2.48,10.1,10.2L499.5,324l-6.64-6.71v14.12l1.55,0,2.66,0,8.6.09a11.13,11.13,0,0,0,11.26-11.15A11.34,11.34,0,0,0,509.8,309.87Z" style="fill:#fff"></path>
  <path d="M554.46,294.89v41.2l49.75.06v-41.2Zm15.27,5.41a5.42,5.42,0,1,1-5.42,5.41A5.43,5.43,0,0,1,569.73,300.29Zm8.16,30.43-16.32,0v-12a5.4,5.4,0,0,1,5.39-5.38h5.54a5.42,5.42,0,0,1,5.39,5.4Zm20.57-5.27-16.29,0V322l16.29,0Zm0-7-16.29,0v-3.47l16.29,0Zm0-7-16.29,0v-3.47l16.29,0Z" style="fill:#fff"></path>
  <path d="M265.74,188.36a69.64,69.64,0,0,0-46.6,17.9,2.79,2.79,0,0,0-.3,3.8l3.9,4.5a2.69,2.69,0,0,0,3.8.2,58.17,58.17,0,0,1,78.2,0,2.69,2.69,0,0,0,3.8-.2l3.9-4.5a2.7,2.7,0,0,0-.3-3.8A68.75,68.75,0,0,0,265.74,188.36Z" style="fill:#009fdf"></path>
  <path d="M265.74,208.06a50.16,50.16,0,0,0-33.8,13.1,2.57,2.57,0,0,0-.2,3.7l3.7,4.3a2.72,2.72,0,0,0,3.9.2,39.24,39.24,0,0,1,53,0,2.72,2.72,0,0,0,3.9-.2l3.7-4.3a2.66,2.66,0,0,0-.2-3.7A50.57,50.57,0,0,0,265.74,208.06Z" style="fill:#009fdf"></path>
  <path d="M265.74,227.66a30.21,30.21,0,0,0-21.1,8.5,2.66,2.66,0,0,0-.1,3.7L248,244a2.72,2.72,0,0,0,3.9.2,19.8,19.8,0,0,1,27.6,0,2.64,2.64,0,0,0,3.9-.2l3.5-4.1a2.76,2.76,0,0,0-.1-3.7A30.22,30.22,0,0,0,265.74,227.66Z" style="fill:#009fdf"></path>
  <path d="M265.74,247.26a10.8,10.8,0,0,0-8.3,3.9,2.61,2.61,0,0,0,0,3.5l6.3,7.3a2.78,2.78,0,0,0,4.1,0l6.3-7.3a2.61,2.61,0,0,0,0-3.5A11.16,11.16,0,0,0,265.74,247.26Z" style="fill:#009fdf"></path>
  <g style="opacity:0.30000000000000004">
    <path d="M735.64,432.4a37.82,37.82,0,0,0-69.32-18.25,18.64,18.64,0,0,0-6.12-1.11,17.25,17.25,0,0,0-16.13,10.9,25.15,25.15,0,0,1,2.89-.11,41.9,41.9,0,0,1,41.62,35.61h64.54V458A27.43,27.43,0,0,0,735.64,432.4Z" style="fill:#a7d7ea"></path>
  </g>
  <g style="opacity:0.30000000000000004">
    <path d="M708.6,491.27A30.5,30.5,0,0,0,689,462.89a42.16,42.16,0,0,0-77.22-20.14,20,20,0,0,0-6.9-1.22,19.31,19.31,0,0,0-19.47,19.25,17,17,0,0,0,.33,3.34,28.89,28.89,0,0,0-26.26,28.71H708.6Z" style="fill:#5dbbe5"></path>
  </g>
</svg>
